# xmcd
#
# Track frame offsets:
#	150
#	14474
#	27055
#	43078
#	61805
#	74742
#	89521
#	107146
#	117852
#	136990
#	154911
#	171512
#	184676
#	199927
#	219496
#
# Disc length: 3120 seconds
#
# Revision: 1
# Processed by: cddbd v1.5.1PL0 Copyright (c) Steve Scherf et al.
# Submitted via: audiograbber 1.83.01
#
DISCID=dc0c2e0f
DTITLE=Superstars of Country - Party Time [CD2]
DYEAR=1900
DGENRE=
TTITLE0=Glen Campbell - Rhinestone Cowboy
TTITLE1=Merle Haggard - If We Make It Through December
TTITLE2=Kenny Rogers - The Gambler
TTITLE3=Juice Newton - Angel Of The Morning
TTITLE4=Michael Murphy - What's Forever For
TTITLE5=Anne Murray - Could I Have This Dance
TTITLE6=Kenny Rogers - Lady
TTITLE7=Merle Haggard - Today I Started Loving You Again
TTITLE8=Bobbie Gentry - Ode to Billy Joe
TTITLE9=Bobby Goldsboro - Honey
TTITLE10=Kenny Rogers - Lucille
TTITLE11=Merle Haggard - Okie From Muskogee
TTITLE12=Jessi Colter - I'm Not Lisa
TTITLE13=Kenny Rogers - She Believes In Me
TTITLE14=Cristy Lane -  One Day At A Time
EXTD=
EXTT0=
EXTT1=
EXTT2=
EXTT3=
EXTT4=
EXTT5=
EXTT6=
EXTT7=
EXTT8=
EXTT9=
EXTT10=
EXTT11=
EXTT12=
EXTT13=
EXTT14=
PLAYORDER=
